HIERARCHY
ROOT Hips
{
  OFFSET -22.5392 62.3281 57.914
  CHANNELS 6 Xposition Yposition Zposition Zrotation Xrotation Yrotation
  JOINT RightUpLeg
  {
    OFFSET -8.9458 -8.66707 0.101652
    CHANNELS 3 Zrotation Xrotation Yrotation
    JOINT RightLeg
    {
      OFFSET 0 -44.4227 1.3727
      CHANNELS 3 Zrotation Xrotation Yrotation
      JOINT RightFoot
      {
        OFFSET 0.253549 -42.0924 -1.46059
        CHANNELS 3 Zrotation Xrotation Yrotation
        JOINT RightToes
        {
          OFFSET 0.04 -4.41509 8.4991
          CHANNELS 3 Zrotation Xrotation Yrotation
          End Site
          {
            OFFSET -0.08 -0.137448 9.77979
          }
        }
      }
    }
  }
  JOINT Spine
  {
    OFFSET 0 11.8905 0
    CHANNELS 3 Zrotation Xrotation Yrotation
    JOINT Spine1
    {
      OFFSET 0 25.6574 0.127663
      CHANNELS 3 Zrotation Xrotation Yrotation
      JOINT HEad
      {
        OFFSET 0 8.73416 0.011341
        CHANNELS 3 Zrotation Xrotation Yrotation
        End Site
        {
          OFFSET -0.29 12.7742 2.51395
        }
      }
      JOINT LeftShoulder1
      {
        OFFSET 8.99 -0.362252 -0.22
        CHANNELS 3 Zrotation Xrotation Yrotation
        JOINT LeftArm
        {
          OFFSET 10.2827 -0.00338 0.322123
          CHANNELS 3 Zrotation Xrotation Yrotation
          JOINT LeftForeArm
          {
            OFFSET 32.7669 0.099144 -1.42434
            CHANNELS 3 Zrotation Xrotation Yrotation
            JOINT LeftHand
            {
              OFFSET 27.5643 0.085362 1.02216
              CHANNELS 3 Zrotation Xrotation Yrotation
              End Site
              {
                OFFSET 16.7443 -0.6 1.50291
              }
            }
          }
        }
      }
      JOINT RightShoulder
      {
        OFFSET -8.99 -0.362252 -0.22
        CHANNELS 3 Zrotation Xrotation Yrotation
        JOINT RightArm
        {
          OFFSET -10.2827 -0.00338 0.322123
          CHANNELS 3 Zrotation Xrotation Yrotation
          JOINT RightForeArm
          {
            OFFSET -32.8971 0.099144 -1.42434
            CHANNELS 3 Zrotation Xrotation Yrotation
            JOINT RightHand
            {
              OFFSET -27.4921 0.085362 1.02216
              CHANNELS 3 Zrotation Xrotation Yrotation
              End Site
              {
                OFFSET -16.6312 -0.6 1.50291
              }
            }
          }
        }
      }
    }
  }
  JOINT LeftUpLeg
  {
    OFFSET 8.9458 -8.66707 0.101652
    CHANNELS 3 Zrotation Xrotation Yrotation
    JOINT LeftLeg
    {
      OFFSET 0 -44.4227 1.3727
      CHANNELS 3 Zrotation Xrotation Yrotation
      JOINT LeftFoot
      {
        OFFSET -0.253549 -42.0924 -1.46059
        CHANNELS 3 Zrotation Xrotation Yrotation
        JOINT LeftToes
        {
          OFFSET -0.04 -4.41509 8.4991
          CHANNELS 3 Zrotation Xrotation Yrotation
          End Site
          {
            OFFSET 0.08 -0.047448 9.77979
          }
        }
      }
    }
  }
}
MOTION
Frames:	18
Frame Time:	0.0166667
-27.0569 56.5037 35.2365 27.8977 47.3535 156.316 -36.5038 -29.5402 -32.5084 48.5285 68.0811 -76.4027 20.9116 6.50454 -8.06301 0.0462048 0.000533403 0.662642 -0.60078 2.91415 -0.371087 -1.1849 5.83753 -0.713301 26.8853 45.2348 43.0311 3.18055e-015 6.36111e-015 -1.59028e-015 -86.1787 6.5144 -1.3541 -3.38976 38.1844 -50.8064 18.9633 21.4497 -3.63913 -1.95594e-008 -1.64207e-006 -1.94768e-006 65.2663 12.0967 -11.3928 -10.9495 31.4601 66.7173 8.22768 25.5548 -10.2639 -23.3071 -39.6901 -29.0075 -152.081 82.5354 123.761 -23.3958 -2.9012 -14.1994 -1.05895e-007 1.55988e-007 -4.8394e-009 
-26.7378 56.4106 35.0218 27.6381 47.187 156.302 -36.642 -29.473 -33.5538 47.7019 68.8893 -73.6729 20.7715 4.86612 -7.89232 0.0462048 0.000533403 0.662642 -0.631612 2.93615 -0.300777 -1.2502 5.88097 -0.570601 26.9764 45.1817 43.0741 1.59028e-015 6.36111e-015 -0 -86.1796 6.33724 -1.43297 -3.20145 38.6891 -51.1629 19.1289 21.6004 -3.58559 -1.95594e-008 -1.64207e-006 -1.94768e-006 65.216 12.2659 -11.5029 -11.2833 31.6095 66.8832 7.96711 26.0024 -10.3109 -23.4716 -39.9532 -29.2335 -152.529 82.2063 123.97 -23.1317 -2.83976 -14.3102 -1.05895e-007 1.55988e-007 -4.8394e-009 
-26.4495 56.3771 34.8435 27.0833 46.9902 156.453 -36.9895 -29.5092 -34.5338 46.4405 69.4405 -71.6652 20.7473 4.06404 -7.27507 0.0462048 0.000533403 0.662642 -0.714153 2.94173 -0.232668 -1.41912 5.89168 -0.429784 26.9553 45.113 43.232 6.36111e-015 0 1.59028e-015 -86.2248 6.10965 -1.52249 -3.06818 39.1029 -51.4898 19.2478 21.7074 -3.50407 -1.95594e-008 -1.64207e-006 -1.94768e-006 65.1463 12.3831 -11.5247 -11.8978 31.8165 67.1974 7.36505 26.6407 -10.3039 -23.8421 -40.2181 -29.2963 -153.152 82.0644 124.358 -22.9127 -2.84144 -14.4083 -1.05895e-007 1.55988e-007 -4.8394e-009 
-26.2229 56.3918 34.7638 26.4174 47.0124 156.821 -37.756 -29.2959 -35.2417 45.434 69.6556 -70.692 21.0246 4.04941 -6.69836 0.0462048 0.000533403 0.662642 -0.839972 2.96455 -0.193389 -1.67325 5.93717 -0.344229 27.0271 45.1562 43.2197 1.59028e-015 3.18055e-015 4.77083e-015 -86.2843 5.96847 -1.46608 -3.01445 39.4456 -51.7569 19.3774 21.807 -3.43314 -1.95594e-008 -1.64207e-006 -1.94768e-006 65.1174 12.4132 -11.6745 -12.6534 32.022 67.6095 6.57773 27.1658 -10.1295 -24.5713 -40.2071 -29.2852 -154.03 82.0857 125.127 -22.6456 -2.73461 -14.3825 -1.05895e-007 1.55988e-007 -4.8394e-009 
-26.108 56.4605 34.7101 25.8466 47.0385 157.217 -38.6381 -29.1333 -35.5628 45.4361 69.5576 -70.9958 21.4041 4.3742 -6.55557 0.0462048 0.000533403 0.662642 -0.947251 2.97404 -0.174587 -1.88922 5.95611 -0.3008 27.1771 45.2648 43.1013 3.18055e-015 -3.18055e-015 -1.59028e-015 -86.3273 5.89499 -1.32966 -2.98972 39.7464 -52.0041 19.4805 21.8723 -3.40552 -1.95594e-008 -1.64207e-006 -1.94768e-006 65.1117 12.3602 -11.88 -13.1908 32.112 67.9673 5.89639 27.2474 -9.85047 -25.1298 -40.2003 -29.3134 -154.862 82.2149 126.009 -22.2281 -2.47359 -14.1492 -1.05895e-007 1.55988e-007 -4.8394e-009 
-26.0823 56.5364 34.6669 25.3938 46.8238 157.6 -39.4874 -29.1956 -35.7737 46.3007 69.1983 -72.2504 21.672 4.8502 -6.66747 0.0462048 0.000533403 0.662642 -0.996252 2.9475 -0.178421 -1.98725 5.90321 -0.30589 27.2879 45.304 43.0396 -0 0 4.77083e-015 -86.3585 5.84987 -1.28739 -2.95553 40.0072 -52.2773 19.5291 21.909 -3.39127 -1.95594e-008 -1.64207e-006 -1.94768e-006 65.0705 12.2161 -12.0081 -13.232 31.9888 68.1492 5.5592 26.9843 -9.69634 -25.9114 -40.3988 -29.6141 -155.539 82.2633 126.791 -21.8764 -2.16806 -13.9042 -1.05895e-007 1.55988e-007 -4.83941e-009 
-26.1395 56.5791 34.6374 25.0321 46.7644 157.892 -40.2105 -29.2127 -35.7603 47.1465 68.7798 -73.5036 21.8427 5.41733 -6.91993 0.0462048 0.000533403 0.662642 -1.04111 2.95607 -0.184225 -2.07748 5.92049 -0.307349 27.3998 45.3961 42.969 3.18055e-015 -6.36111e-015 -1.59028e-015 -86.4072 5.8021 -1.19915 -2.92048 40.2263 -52.5898 19.5907 21.9572 -3.40399 -1.95594e-008 -1.64207e-006 -1.94768e-006 64.9911 12.0683 -12.2254 -12.9507 31.7527 68.2701 5.36332 26.7081 -9.58218 -26.4657 -40.4563 -29.8399 -155.908 82.2808 127.307 -21.5551 -1.89108 -13.4706 -1.05895e-007 1.55988e-007 -4.8394e-009 
-26.2321 56.6054 34.5982 25.3211 46.6266 157.74 -40.3247 -29.1731 -35.7865 47.3685 68.5172 -73.9583 22.0891 6.35924 -7.29662 0.0462048 0.000533403 0.662642 -0.931318 2.97099 -0.186952 -1.85665 5.95018 -0.32646 27.5329 45.558 42.8527 -4.77083e-015 6.36111e-015 -3.18055e-015 -86.4724 5.76892 -1.04309 -2.8984 40.3878 -52.9441 19.7291 22.115 -3.45277 -1.95594e-008 -1.64207e-006 -1.94768e-006 64.8642 11.9216 -12.5441 -12.7172 31.5766 68.5353 5.00888 26.6211 -9.36474 -26.6109 -40.4962 -30.0677 -155.903 82.1324 127.452 -21.1549 -1.66392 -12.925 -1.05895e-007 1.55988e-007 -4.8394e-009 
-26.3335 56.6472 34.5329 25.5444 46.429 157.567 -40.3273 -29.2723 -35.9198 47.1064 68.4771 -73.6935 22.3262 7.23343 -7.81471 0.0462048 0.000533403 0.662642 -0.826661 2.98073 -0.177273 -1.6474 5.96925 -0.3124 27.6311 45.666 42.7853 1.59028e-015 6.36111e-015 3.18055e-015 -86.527 5.73779 -0.940114 -2.83473 40.533 -53.3758 19.9591 22.4277 -3.49706 -1.95594e-008 -1.64207e-006 -1.94768e-006 64.6865 11.7544 -12.8103 -12.8056 31.5477 69.0633 4.45548 26.7062 -9.05634 -26.6837 -40.6906 -30.2659 -155.933 81.9033 127.599 -20.8333 -1.52803 -12.4857 -1.05895e-007 1.55988e-007 -4.8394e-009 
-26.4198 56.6866 34.4368 25.6671 46.1242 157.353 -40.2777 -29.5819 -36.0468 46.7191 68.5129 -73.2146 22.4686 8.00544 -8.30003 0.0462048 0.000533403 0.662642 -0.733261 2.97254 -0.139874 -1.46219 5.95218 -0.242457 27.6695 45.7146 42.8211 4.77083e-015 3.18055e-015 -1.59028e-015 -86.56 5.69676 -0.901858 -2.69396 40.7203 -53.8876 20.185 22.8732 -3.48018 -1.95594e-008 -1.64207e-006 -1.94768e-006 64.5205 11.6568 -12.9858 -13.1651 31.5347 69.7745 3.90807 26.809 -8.78646 -26.8046 -40.9609 -30.3764 -156.523 81.6954 128.323 -20.5132 -1.41935 -12.1145 -1.05895e-007 1.55988e-007 -4.8394e-009 
-26.5102 56.7153 34.3269 25.7316 45.8143 157.173 -40.2607 -29.9594 -36.0849 46.5689 68.5153 -73.0327 22.4577 8.65031 -8.63375 0.0462048 0.000533403 0.662642 -0.649067 2.94408 -0.0991175 -1.29559 5.89466 -0.165502 27.7316 45.7901 42.8266 1.59028e-015 3.18055e-015 1.59028e-015 -86.572 5.70023 -0.791831 -2.5004 40.881 -54.4846 20.2641 23.3956 -3.37897 -1.95594e-008 -1.64207e-006 -1.94768e-006 64.3991 11.6361 -13.2045 -13.596 31.4713 70.5532 3.49954 26.7892 -8.59764 -27.0245 -41.3292 -30.3727 -157.791 81.5748 129.778 -20.2416 -1.1734 -11.8147 -1.05895e-007 1.55988e-007 -4.8394e-009 
-26.6075 56.739 34.2374 25.607 45.5287 157.223 -40.402 -30.3437 -36.1526 46.5685 68.5296 -73.0716 22.3368 8.95154 -8.79082 0.0462048 0.000533403 0.662642 -0.60208 2.90269 -0.0780754 -1.2025 5.8116 -0.126202 27.8319 45.8408 42.7755 -1.76556e-031 6.36111e-015 1.59028e-015 -86.5511 5.77567 -0.643119 -2.29829 40.9941 -55.1473 20.2015 23.8507 -3.22519 -1.95594e-008 -1.64207e-006 -1.94768e-006 64.3222 11.6724 -13.4469 -13.9116 31.296 71.257 3.21416 26.6636 -8.42114 -27.3281 -41.7224 -30.4714 -158.885 81.5148 131.113 -20.1141 -0.812615 -11.4537 -1.05895e-007 1.55988e-007 -4.8394e-009 
-26.7135 56.7486 34.1376 25.3944 45.2056 157.406 -40.5722 -30.7752 -36.2283 46.4961 68.5725 -73.05 22.2707 9.03253 -8.85469 0.0462048 0.000533403 0.662642 -0.559716 2.86225 -0.0740824 -1.11781 5.73064 -0.120757 27.8893 45.822 42.7495 -3.18055e-015 3.18055e-015 1.59028e-015 -86.5492 5.86824 -0.496105 -2.08578 41.0087 -55.8533 20.1207 24.2202 -3.15351 -1.95594e-008 -1.64207e-006 -1.94768e-006 64.2428 11.6769 -13.6475 -14.0998 31.0898 71.8768 2.95691 26.5112 -8.20039 -27.8502 -42.1632 -30.6821 -159.897 81.4696 132.348 -20.0699 -0.362998 -11.2727 -1.05895e-007 1.55988e-007 -4.8394e-009 
-26.8144 56.7363 34.0572 25.2035 44.9053 157.618 -40.6494 -31.193 -36.2074 46.1461 68.6444 -72.7427 22.4268 9.10037 -8.91285 0.0462048 0.000533403 0.662642 -0.503254 2.84092 -0.0740643 -1.00409 5.68805 -0.147978 27.8781 45.7943 42.7529 -1.59028e-015 -6.36111e-015 -0 -86.586 5.95006 -0.314129 -1.86075 40.909 -56.5786 20.0308 24.4985 -3.1722 -1.95594e-008 -1.64207e-006 -1.94768e-006 64.1527 11.6374 -13.8504 -14.2182 30.9154 72.4451 2.65193 26.3598 -7.92189 -28.2733 -42.4912 -31.0011 -160.327 81.4528 132.967 -20.1219 0.115635 -11.1868 -1.05895e-007 1.55988e-007 -4.8394e-009 
-26.9278 56.7141 33.9803 24.9194 44.6742 157.853 -40.7159 -31.6025 -36.0188 45.5868 68.6928 -72.1947 22.7624 9.23341 -9.0647 0.0462048 0.000533403 0.662642 -0.471862 2.83789 -0.0756988 -0.94103 5.682 -0.15916 27.835 45.7781 42.7736 0 3.18055e-015 -0 -86.6369 6.07352 -0.0589916 -1.64065 40.6345 -57.3223 19.9476 24.7222 -3.20434 -1.95594e-008 -1.64207e-006 -1.94768e-006 64.0842 11.5492 -14.0809 -14.325 30.7919 72.9991 2.31595 26.2089 -7.6493 -28.7763 -42.9268 -31.2073 -160.514 81.4272 133.247 -20.2182 0.519506 -10.968 -1.05895e-007 1.55988e-007 -4.8394e-009 
-27.0505 56.6905 33.9043 24.5748 44.3855 158.063 -40.788 -32.0899 -35.8094 45.0516 68.7038 -71.5939 23.1582 9.46257 -9.28084 0.0462048 0.000533403 0.662642 -0.450111 2.83025 -0.0783069 -0.897659 5.66665 -0.150036 27.7482 45.7326 42.8599 3.18055e-015 -3.18055e-015 -0 -86.6272 6.2594 0.234031 -1.48652 40.1843 -58.0873 19.9085 24.8809 -3.2226 -1.95594e-008 -1.64207e-006 -1.94768e-006 64.0659 11.4781 -14.2722 -14.371 30.6387 73.5004 2.00221 26.0355 -7.44139 -29.2595 -43.3431 -31.4772 -160.699 81.4723 133.445 -20.3791 0.849442 -10.7099 -1.05895e-007 1.55988e-007 -4.8394e-009 
-27.1772 56.6528 33.8253 24.1653 44.0017 158.323 -40.9603 -32.608 -35.7961 44.7442 68.7085 -71.1029 23.4296 9.62147 -9.43755 0.0462048 0.000533403 0.662642 -0.431192 2.80758 -0.0812103 -0.860125 5.62124 -0.139257 27.6259 45.5993 43.0078 -6.36111e-015 0 -0 -86.4815 6.54489 0.513856 -1.4732 39.6006 -58.8872 19.9113 24.984 -3.24121 -1.95594e-008 -1.64207e-006 -1.94768e-006 64.0902 11.4608 -14.421 -14.3254 30.3814 73.9283 1.71563 25.948 -7.34207 -29.792 -43.8649 -31.8173 -160.774 81.5362 133.547 -20.6003 1.18309 -10.6489 -1.05895e-007 1.55988e-007 -4.8394e-009 
-27.2893 56.5926 33.7754 23.7424 43.6233 158.615 -41.2052 -33.064 -35.9333 44.7537 68.7124 -70.8572 23.4839 9.62728 -9.4615 0.0462048 0.000533403 0.662642 -0.410482 2.7822 -0.0837322 -0.818798 5.57046 -0.139953 27.4608 45.418 43.2031 1.59028e-015 -3.18055e-015 1.59028e-015 -86.1439 6.87041 0.792026 -1.60824 39.0154 -59.7603 19.9329 25.0601 -3.29483 -1.95594e-008 -1.64207e-006 -1.94768e-006 64.1229 11.5297 -14.5977 -14.3523 30.0294 74.3834 1.43365 26.1141 -7.30318 -30.2998 -44.3794 -32.2724 -160.391 81.5974 133.139 -20.9077 1.44652 -10.6739 -1.05895e-007 1.55988e-007 -4.8394e-009 
